<svg width="36" height="36" viewBox="0 0 36 36" fill="none" xmlns="http://www.w3.org/2000/svg">
<path d="M12 15H12.015M18 15H18.015M24 15H24.015M13.5 24H7.5C6.70435 24 5.94129 23.6839 5.37868 23.1213C4.81607 22.5587 4.5 21.7956 4.5 21V9C4.5 8.20435 4.81607 7.44129 5.37868 6.87868C5.94129 6.31607 6.70435 6 7.5 6H28.5C29.2956 6 30.0587 6.31607 30.6213 6.87868C31.1839 7.44129 31.5 8.20435 31.5 9V21C31.5 21.7956 31.1839 22.5587 30.6213 23.1213C30.0587 23.6839 29.2956 24 28.5 24H21L13.5 31.5V24Z" stroke="#F9F8F6" stroke-width="3" stroke-linecap="round" stroke-linejoin="round"/>
</svg>
